<svg width="348" height="35" viewBox="0 0 348 35" fill="none" xmlns="http://www.w3.org/2000/svg">
<path d="M0.736 34V0.399998H10.048L27.136 20.848H22.816V0.399998H33.856V34H24.544L7.456 13.552H11.776V34H0.736ZM53.4741 34.48C50.2741 34.48 47.4741 33.888 45.0741 32.704C42.7061 31.52 40.8661 29.904 39.5541 27.856C38.2421 25.776 37.5861 23.44 37.5861 20.848C37.5861 18.192 38.2261 15.84 39.5061 13.792C40.8181 11.744 42.5941 10.144 44.8341 8.992C47.1061 7.84 49.6501 7.264 52.4661 7.264C55.0581 7.264 57.4421 7.776 59.6181 8.8C61.8261 9.824 63.5861 11.344 64.8981 13.36C66.2421 15.376 66.9141 17.872 66.9141 20.848C66.9141 21.232 66.8981 21.664 66.8661 22.144C66.8341 22.592 66.8021 23.008 66.7701 23.392H46.5621V18.16H61.0101L56.9301 19.552C56.9301 18.528 56.7381 17.664 56.3541 16.96C56.0021 16.224 55.5061 15.664 54.8661 15.28C54.2261 14.864 53.4581 14.656 52.5621 14.656C51.6661 14.656 50.8821 14.864 50.2101 15.28C49.5701 15.664 49.0741 16.224 48.7221 16.96C48.3701 17.664 48.1941 18.528 48.1941 19.552V21.184C48.1941 22.304 48.4181 23.264 48.8661 24.064C49.3141 24.864 49.9541 25.472 50.7861 25.888C51.6181 26.272 52.6261 26.464 53.8101 26.464C55.0261 26.464 56.0181 26.304 56.7861 25.984C57.5861 25.664 58.4181 25.184 59.2821 24.544L64.9461 30.256C63.6661 31.632 62.0821 32.688 60.1941 33.424C58.3381 34.128 56.0981 34.48 53.4741 34.48ZM66.8024 34L79.1864 17.776L78.8984 24.016L67.0904 7.744H79.3304L85.1384 16.432L80.6264 16.768L87.0104 7.744H98.3864L86.5304 23.488V17.488L98.6264 34H86.1944L80.1944 24.736L84.7544 25.36L78.5624 34H66.8024ZM111.047 34.48C108.967 34.48 107.079 34.064 105.383 33.232C103.719 32.368 102.407 31.04 101.447 29.248C100.487 27.424 100.007 25.088 100.007 22.24V7.744H110.855V20.368C110.855 22.224 111.159 23.52 111.767 24.256C112.375 24.992 113.207 25.36 114.263 25.36C114.903 25.36 115.495 25.2 116.039 24.88C116.615 24.528 117.079 23.968 117.431 23.2C117.783 22.4 117.959 21.36 117.959 20.08V7.744H128.807V34H118.487V26.416L120.551 28.48C119.623 30.528 118.295 32.048 116.567 33.04C114.871 34 113.031 34.48 111.047 34.48ZM143.891 34.48C141.651 34.48 139.443 34.24 137.267 33.76C135.091 33.28 133.331 32.656 131.987 31.888L134.963 24.736C136.211 25.472 137.651 26.048 139.283 26.464C140.947 26.88 142.563 27.088 144.131 27.088C145.443 27.088 146.323 26.976 146.771 26.752C147.251 26.528 147.491 26.224 147.491 25.84C147.491 25.456 147.219 25.184 146.675 25.024C146.131 24.832 145.411 24.688 144.515 24.592C143.619 24.496 142.627 24.384 141.539 24.256C140.483 24.096 139.411 23.872 138.323 23.584C137.235 23.296 136.243 22.864 135.347 22.288C134.451 21.712 133.731 20.944 133.187 19.984C132.643 18.992 132.371 17.744 132.371 16.24C132.371 14.576 132.867 13.072 133.859 11.728C134.883 10.384 136.387 9.312 138.371 8.512C140.387 7.68 142.867 7.264 145.811 7.264C147.731 7.264 149.651 7.44 151.571 7.792C153.491 8.144 155.139 8.688 156.515 9.424L153.539 16.576C152.195 15.84 150.867 15.344 149.555 15.088C148.275 14.8 147.075 14.656 145.955 14.656C144.579 14.656 143.635 14.784 143.123 15.04C142.643 15.296 142.403 15.584 142.403 15.904C142.403 16.288 142.675 16.576 143.219 16.768C143.763 16.96 144.483 17.104 145.379 17.2C146.275 17.296 147.251 17.424 148.307 17.584C149.395 17.712 150.467 17.936 151.523 18.256C152.611 18.544 153.603 18.976 154.499 19.552C155.395 20.128 156.115 20.912 156.659 21.904C157.203 22.864 157.475 24.096 157.475 25.6C157.475 27.168 156.979 28.64 155.987 30.016C154.995 31.36 153.491 32.448 151.475 33.28C149.459 34.08 146.931 34.48 143.891 34.48ZM219.345 34V9.184H209.505V0.399998H240.513V9.184H230.673V34H219.345ZM254.99 34.48C251.79 34.48 248.99 33.888 246.59 32.704C244.222 31.52 242.382 29.904 241.07 27.856C239.758 25.776 239.102 23.44 239.102 20.848C239.102 18.192 239.742 15.84 241.022 13.792C242.334 11.744 244.11 10.144 246.35 8.992C248.622 7.84 251.166 7.264 253.982 7.264C256.574 7.264 258.958 7.776 261.134 8.8C263.342 9.824 265.102 11.344 266.414 13.36C267.758 15.376 268.43 17.872 268.43 20.848C268.43 21.232 268.414 21.664 268.382 22.144C268.35 22.592 268.318 23.008 268.286 23.392H248.078V18.16H262.526L258.446 19.552C258.446 18.528 258.254 17.664 257.87 16.96C257.518 16.224 257.022 15.664 256.382 15.28C255.742 14.864 254.974 14.656 254.078 14.656C253.182 14.656 252.398 14.864 251.726 15.28C251.086 15.664 250.59 16.224 250.238 16.96C249.886 17.664 249.71 18.528 249.71 19.552V21.184C249.71 22.304 249.934 23.264 250.382 24.064C250.83 24.864 251.47 25.472 252.302 25.888C253.134 26.272 254.142 26.464 255.326 26.464C256.542 26.464 257.534 26.304 258.302 25.984C259.102 25.664 259.934 25.184 260.798 24.544L266.462 30.256C265.182 31.632 263.598 32.688 261.71 33.424C259.854 34.128 257.614 34.48 254.99 34.48ZM287.038 34V29.344L286.27 28.096V19.264C286.27 17.984 285.87 17.008 285.07 16.336C284.302 15.664 283.038 15.328 281.278 15.328C280.094 15.328 278.894 15.52 277.678 15.904C276.462 16.256 275.422 16.752 274.558 17.392L271.102 10.24C272.638 9.28 274.478 8.544 276.622 8.032C278.766 7.52 280.862 7.264 282.91 7.264C287.422 7.264 290.91 8.272 293.374 10.288C295.87 12.304 297.118 15.504 297.118 19.888V34H287.038ZM279.598 34.48C277.454 34.48 275.662 34.112 274.222 33.376C272.782 32.64 271.694 31.664 270.958 30.448C270.222 29.2 269.854 27.824 269.854 26.32C269.854 24.624 270.286 23.184 271.15 22C272.014 20.816 273.326 19.92 275.086 19.312C276.878 18.704 279.134 18.4 281.854 18.4H287.326V23.632H283.582C282.43 23.632 281.582 23.824 281.038 24.208C280.526 24.56 280.27 25.104 280.27 25.84C280.27 26.448 280.494 26.96 280.942 27.376C281.422 27.76 282.062 27.952 282.862 27.952C283.598 27.952 284.27 27.76 284.878 27.376C285.518 26.96 285.982 26.32 286.27 25.456L287.662 28.672C287.246 30.624 286.366 32.08 285.022 33.04C283.678 34 281.87 34.48 279.598 34.48ZM336.558 7.264C338.542 7.264 340.318 7.68 341.886 8.512C343.486 9.312 344.734 10.576 345.63 12.304C346.558 14.032 347.022 16.272 347.022 19.024V34H336.174V20.896C336.174 19.264 335.902 18.112 335.358 17.44C334.814 16.736 334.11 16.384 333.246 16.384C332.606 16.384 332.03 16.544 331.518 16.864C331.006 17.184 330.59 17.696 330.27 18.4C329.982 19.072 329.838 20 329.838 21.184V34H318.99V20.896C318.99 19.264 318.734 18.112 318.222 17.44C317.71 16.736 316.99 16.384 316.062 16.384C315.422 16.384 314.846 16.544 314.334 16.864C313.822 17.184 313.406 17.696 313.086 18.4C312.798 19.072 312.654 20 312.654 21.184V34H301.806V7.744H312.126V15.28L310.014 13.168C311.006 11.184 312.334 9.712 313.998 8.752C315.662 7.76 317.518 7.264 319.566 7.264C321.87 7.264 323.902 7.872 325.662 9.088C327.454 10.272 328.654 12.16 329.262 14.752L325.95 14.224C326.91 12.048 328.302 10.352 330.126 9.136C331.982 7.888 334.126 7.264 336.558 7.264Z" fill="#23C9DE"/>
<path d="M157.975 34L172.951 13.072L172.903 20.992L158.407 0.399998H171.127L179.575 12.88L174.151 12.928L182.407 0.399998H194.599L180.103 20.56V12.688L195.319 34H182.359L173.911 20.944L179.143 20.896L170.887 34H157.975Z" fill="#FF8135"/>
</svg>
